<?xml version="1.0" standalone="no"?>
<!DOCTYPE svg PUBLIC "-//W3C//DTD SVG 20010904//EN"
 "http://www.w3.org/TR/2001/REC-SVG-20010904/DTD/svg10.dtd">
<svg version="1.0" xmlns="http://www.w3.org/2000/svg"
 width="480.000000pt" height="480.000000pt" viewBox="0 0 480.000000 480.000000"
 preserveAspectRatio="xMidYMid meet">
<metadata>
Created by potrace 1.14, written by Peter Selinger 2001-2017
</metadata>
<g transform="translate(0.000000,480.000000) scale(0.100000,-0.100000)"
fill="#000000" stroke="none">
<path d="M1786 4505 c-4 -16 -14 -57 -22 -90 -26 -111 -75 -193 -158 -269
-104 -92 -139 -146 -139 -206 1 -55 16 -86 91 -195 154 -222 173 -261 173
-359 0 -131 -101 -224 -256 -233 -91 -6 -152 18 -191 76 -34 53 -40 111 -20
201 43 190 33 322 -32 407 -28 37 -42 35 -42 -6 0 -40 -36 -147 -67 -201 -14
-25 -52 -79 -83 -120 -187 -248 -244 -410 -236 -675 3 -101 9 -145 30 -230 5
-17 27 -69 47 -110 19 -38 38 -63 112 -145 18 -19 68 -75 112 -125 44 -49 87
-96 95 -105 8 -9 27 -31 43 -48 15 -18 35 -32 45 -33 9 0 111 -1 225 -2 160
-2 211 1 219 11 8 9 8 16 1 23 -7 7 -6 24 3 54 16 54 20 150 9 190 -5 17 -8
38 -6 48 2 16 0 16 -34 -3 -19 -11 -39 -20 -44 -20 -9 0 -5 55 4 70 10 16 -18
23 -30 7 -9 -12 -15 -13 -23 -5 -6 6 -50 13 -99 15 -48 2 -101 5 -118 8 -16 2
-54 7 -83 11 -41 5 -56 3 -70 -9 -22 -20 -92 -34 -92 -18 0 6 6 11 13 11 7 0
22 7 33 15 16 13 16 14 2 9 -28 -10 -21 4 10 19 20 11 62 14 160 12 201 -4
243 15 258 111 10 69 41 108 93 115 35 5 48 1 76 -20 28 -21 34 -32 33 -58 -3
-41 28 -77 57 -68 31 10 54 8 92 -10 45 -21 170 -47 194 -40 14 5 24 -5 44
-44 29 -58 26 -63 -13 -23 -26 28 -29 28 -120 24 l-93 -4 6 -42 c3 -22 8 -84
11 -136 3 -52 7 -111 8 -130 2 -19 4 -55 5 -80 l1 -45 338 0 337 0 60 34 c244
136 303 310 173 503 -47 70 -99 123 -236 242 -62 54 -120 112 -128 129 -14 26
-20 68 -23 147 -1 19 -66 -71 -97 -134 -39 -80 -32 -125 27 -194 36 -41 36
-52 2 -87 -94 -94 -259 -93 -348 2 -24 26 -33 56 -38 113 -3 39 13 130 22 130
5 0 12 11 15 25 3 13 46 67 95 119 114 122 136 165 135 271 -1 93 -25 156 -95
251 -84 114 -166 185 -314 274 -198 118 -231 175 -161 280 49 75 61 149 39
250 -8 36 -18 83 -22 105 l-8 40 -7 -30z"/>
<path d="M958 2193 c-19 -5 -25 -25 -33 -118 -3 -38 -19 -115 -35 -170 -28
-98 -34 -124 -44 -195 -14 -97 -28 -197 -31 -211 -21 -107 -22 -178 -4 -190
29 -18 47 25 65 156 3 22 9 43 12 46 8 7 143 41 147 37 1 -2 10 -34 19 -73 26
-100 67 -214 80 -222 21 -14 36 -11 46 7 8 14 4 36 -16 87 -14 37 -27 75 -29
83 -2 8 -12 45 -21 82 -18 65 -18 67 1 88 16 18 17 23 5 30 -8 5 -17 7 -22 4
-10 -7 -25 25 -32 71 -4 22 -9 49 -11 60 -2 11 -6 38 -10 60 -3 22 -8 51 -10
65 -2 14 -7 66 -10 115 -10 139 -30 196 -67 188z m10 -230 c6 -91 24 -223 38
-277 8 -32 12 -62 7 -66 -13 -13 -112 -39 -117 -32 -2 4 0 30 5 57 5 27 12 74
15 105 3 30 8 58 10 62 2 3 7 33 10 65 3 32 7 67 9 78 2 11 4 28 4 38 2 33 17
9 19 -30z"/>
<path d="M2176 1965 c-30 -31 -14 -75 29 -75 24 0 85 35 85 50 0 12 -26 26
-66 34 -23 5 -36 2 -48 -9z"/>
<path d="M3128 1963 c-18 -22 -15 -142 7 -303 2 -14 6 -54 10 -90 4 -36 8 -72
11 -81 6 -22 -13 -28 -100 -35 -39 -3 -77 -7 -83 -9 -15 -5 -14 -20 -15 244 0
112 -5 219 -10 238 -11 40 -33 52 -56 29 -14 -14 -16 -50 -18 -268 l-2 -253
-26 -15 c-35 -20 -44 -51 -20 -67 51 -34 52 -36 59 -128 3 -49 8 -103 10 -120
2 -16 7 -57 10 -90 9 -73 29 -115 55 -115 26 0 28 19 14 200 -4 58 -8 136 -8
175 l-1 69 52 12 c29 6 75 14 103 17 46 5 50 4 51 -16 0 -12 2 -31 5 -42 2
-11 7 -72 10 -135 8 -149 31 -245 59 -245 32 0 44 55 39 170 -3 55 -7 111 -9
125 -2 14 -7 45 -11 70 -14 85 -11 103 19 118 24 12 38 41 20 43 -17 1 -57 10
-59 12 -1 1 -7 45 -13 97 -6 52 -14 111 -17 130 -3 19 -2 30 3 24 20 -28 53
-26 92 5 21 17 49 34 62 39 24 9 125 10 132 1 3 -2 7 -35 11 -73 4 -38 8 -71
10 -75 2 -3 6 -28 10 -56 3 -27 17 -93 31 -145 14 -52 35 -144 46 -205 10 -60
24 -120 29 -132 12 -29 38 -30 49 -1 15 40 -7 226 -43 365 -26 99 -37 163 -49
288 -2 24 19 23 108 -7 140 -48 286 -142 320 -209 72 -138 -135 -393 -435
-537 -125 -59 -146 -68 -245 -96 -92 -27 -140 -33 -130 -17 3 5 -2 17 -11 26
-15 15 -18 15 -35 -1 -10 -9 -22 -33 -25 -52 -10 -50 13 -65 86 -58 98 11 213
49 374 125 369 174 596 456 511 634 -91 193 -599 385 -789 299 -27 -12 -66
-40 -86 -62 -26 -28 -36 -34 -37 -22 -5 97 -17 199 -24 206 -15 16 -37 15 -51
-1z"/>
<path d="M2534 1830 c-33 -13 -74 -73 -94 -137 -31 -99 -15 -205 39 -267 44
-50 137 -62 213 -28 55 25 96 68 80 84 -8 8 -27 4 -73 -17 -89 -40 -155 -24
-199 47 -47 77 13 258 86 258 22 0 39 -24 29 -40 -3 -5 -25 -19 -50 -31 -49
-25 -63 -46 -42 -67 12 -12 21 -10 65 12 27 14 61 40 75 57 21 27 23 36 15 61
-18 52 -93 87 -144 68z"/>
<path d="M1319 1783 c-14 -35 -4 -315 12 -344 6 -11 16 -18 22 -16 23 7 66 83
83 145 l17 63 29 -60 c37 -76 75 -105 141 -106 53 0 76 18 64 49 -5 13 -11 14
-24 7 -13 -6 -29 -5 -51 5 -61 25 -86 65 -102 162 -8 51 -17 75 -30 82 -25 13
-33 1 -70 -110 -18 -52 -36 -102 -41 -110 -5 -9 -8 35 -7 110 1 69 -1 131 -5
138 -13 20 -27 14 -38 -15z"/>
<path d="M1779 1793 c-11 -12 -13 -46 -11 -142 2 -69 5 -139 7 -156 2 -16 3
-37 4 -46 1 -22 29 -32 44 -16 30 30 65 105 73 156 6 33 22 31 34 -3 33 -100
161 -165 204 -104 20 29 9 40 -43 42 -70 4 -112 58 -125 161 -9 71 -25 99 -52
88 -7 -3 -30 -57 -50 -121 -22 -67 -40 -109 -43 -99 -3 9 -5 60 -4 114 3 138
-5 166 -38 126z"/>
<path d="M2213 1713 c-7 -2 -13 -14 -13 -25 0 -35 62 -222 79 -241 22 -23 51
-12 51 19 0 33 -49 183 -72 222 -20 32 -23 34 -45 25z"/>
<path d="M2078 1122 l-27 -3 35 -46 c67 -88 101 -180 107 -292 4 -68 -13 -196
-33 -246 -6 -16 -12 -32 -12 -35 -1 -13 -12 -41 -44 -114 -19 -43 -33 -81 -31
-83 10 -10 120 42 195 92 105 70 97 63 206 170 165 160 251 305 291 490 8 33
12 61 11 63 -5 4 -664 8 -698 4z"/>
</g>
</svg>
